<svg data-v-decfdd8a="" version="1.0" xmlns="http://www.w3.org/2000/svg" xmlns:xlink="http://www.w3.org/1999/xlink" width="100%" height="100%" viewBox="0 0 340.000000 250.000000" preserveAspectRatio="xMidYMid meet" color-interpolation-filters="sRGB" style="margin: auto;"> <rect data-v-decfdd8a="" x="0" y="0" width="100%" height="100%" fill="#fff" fill-opacity="1" class="background"></rect> <rect data-v-decfdd8a="" x="0" y="0" width="100%" height="100%" fill="url(#watermark)" fill-opacity="1" class="watermarklayer"></rect> <g data-v-decfdd8a="" fill="#333" class="icon-text-wrapper icon-svg-group iconsvg" transform="translate(82.78999328613281,65.49491500866995)"><g class="iconsvg-imagesvg" transform="translate(57.21000671386719,0)"><g><rect fill="#333" fill-opacity="0" stroke-width="2" x="0" y="0" width="60" height="62.00204606752023" class="image-rect"></rect> <svg x="0" y="0" width="60" height="62.00204606752023" filtersec="colorsb9000722970" class="image-svg-svg primary" style="overflow: visible;"><svg xmlns="http://www.w3.org/2000/svg" viewBox="-0.027530694380402565 -0.0020903043914586306 111.73080444335938 115.45925903320312"><title>资源 47</title><path d="M0 82.09c0-4.83.06-9.66 0-14.48a3.31 3.31 0 0 1 1.85-3.41q12.48-7.1 24.85-14.38a3.12 3.12 0 0 1 3.64 0Q43 57.32 55.82 64.63a3.15 3.15 0 0 1 1.9 3.11c-.08 9.9 0 19.81-.12 29.71a4 4 0 0 1-1.71 2.85c-8.29 4.94-16.68 9.71-25 14.61a2.93 2.93 0 0 1-3.41 0Q14.79 107.43 2 100.16a3.5 3.5 0 0 1-2-3.59c.09-4.82 0-9.65 0-14.48z" fill="#2d53be"></path><path d="M87.73 27.45c0 3.83-.07 7.66 0 11.49a3.47 3.47 0 0 1-2 3.6c-7.11 4-14.14 8.16-21.25 12.15a3.46 3.46 0 0 1-2.85.06c-7.12-4-14.15-8.15-21.25-12.17a3.51 3.51 0 0 1-2.08-3.53q.15-11.62 0-23.24a3.3 3.3 0 0 1 2-3.33C47.46 8.45 54.48 4.29 61.6.31a3.69 3.69 0 0 1 3.1.06c7 3.94 14 8.07 21 12.05a3.42 3.42 0 0 1 2 3.53c-.05 3.83.03 7.66.03 11.5z" fill="#2595db"></path><path d="M111.67 78c0 3.57.11 7.16-.07 10.73a3.87 3.87 0 0 1-1.55 2.7q-9.3 5.59-18.78 10.89a3.46 3.46 0 0 1-2.87 0q-9.27-5.14-18.35-10.62a3.53 3.53 0 0 1-1.44-2.52c-.11-7.24-.12-14.48 0-21.72a3.82 3.82 0 0 1 1.62-2.66q9.21-5.53 18.58-10.8a3.73 3.73 0 0 1 3.1 0q9.16 5.09 18.13 10.51a3.85 3.85 0 0 1 1.56 2.71c.18 3.62.07 7.21.07 10.78z" fill="#242a9b"></path></svg></svg> <!----></g></g> <g transform="translate(0,69.00204467773438)"><g data-gra="path-name" fill-rule="" class="tp-name iconsvg-namesvg" transform="translate(0,0)"><g transform="scale(1)"><g><path d="M5.14-38.76L19.44-38.76 17.65-25.14 31.46-25.14 33.13-36.41 31.33-38.76 45.02-38.76 40.25-3.72 28.36-3.72 30.71-19.2 16.84-19.2 14.67-3.72 2.79-3.72 7.55-37.03 5.14-38.76ZM53.56-38.76L88.61-38.76 88.05-32.82 66.63-32.82 65.45-22.72 85.08-22.72 84.46-16.78 64.27-16.78 62.48-3.72 50.59-3.72 55.36-36.41 53.56-38.76ZM116.04-9.6L117.4-19.01 96.22-19.01 97.03-24.89 118.2-24.89 119.38-33.13 95.85-33.13 96.66-38.95 131.95-38.95 127.55-7.93Q127.31-6.13 125.91-4.92 124.52-3.72 122.79-3.72L122.79-3.72 91.7-3.72 92.57-9.6 116.04-9.6ZM163.28-23.72L164.64-33.13 152.82-33.13 152.26-28.42 140.5-28.42 141.98-39.01 177.21-39.01 174.24-17.83 149.54-17.83 148.42-9.6 170.77-9.6 173.44-11.95 172.26-3.72 141.24-3.72Q139.44-3.72 138.39-4.92 137.34-6.13 137.59-7.93L137.59-7.93 139.81-23.72 163.28-23.72Z" transform="translate(-2.7899999618530273, 39.0099983215332)"></path></g> <!----> <!----> <!----> <!----> <!----> <!----> <!----></g></g> <g data-gra="path-slogan" fill-rule="" class="tp-slogan iconsvg-slogansvg" fill="#333" transform="translate(5,41.28999710083008)"><rect x="0" height="1" y="3.8600001335144043" width="49.91500663757324"></rect> <rect height="1" y="3.8600001335144043" width="49.91500663757324" x="114.50500679016113"></rect> <g transform="translate(52.91500663757324,0)"><g transform="scale(1)"><path d="M2.06-5.06L6.56-5.06L6.56-8.58L7.73-8.58L7.73 0L6.56 0L6.56-3.98L2.06-3.98L2.06 0L0.89 0L0.89-8.58L2.06-8.58L2.06-5.06ZM15.19 0L14.34-2.48L10.88-2.48L9.98 0L8.81 0L12.05-8.58L13.36-8.58L16.45 0L15.19 0ZM12.61-7.31L11.25-3.52L13.92-3.52L12.66-7.31L12.61-7.31ZM18.14-8.58L20.58-1.27L23.06-8.58L24.38-8.58L21.23 0L19.97 0L16.83-8.58L18.14-8.58ZM26.77-1.03L31.92-1.03L31.92 0L25.59 0L25.59-8.58L31.83-8.58L31.83-7.59L26.77-7.59L26.77-4.92L31.45-4.92L31.45-3.89L26.77-3.89L26.77-1.03ZM42.28-3.89L38.06-3.89L38.06 0L36.89 0L36.89-8.58L42.84-8.58L42.84-7.59L38.06-7.59L38.06-4.92L42.28-4.92L42.28-3.89ZM49.69-3.19L49.69-8.58L50.86-8.58L50.86-3.05Q50.72 0.05 47.34 0.14L47.34 0.14Q44.20 0.05 44.06-2.86L44.06-2.86L44.06-8.58L45.23-8.58L45.23-3.19Q45.28-0.84 47.39-0.80L47.39-0.80Q49.69-0.84 49.69-3.19L49.69-3.19ZM54.05-8.58L58.36-1.64L58.36-8.58L59.48-8.58L59.48 0L58.17 0L53.81-6.94L53.77-6.94L53.77 0L52.64 0L52.64-8.58L54.05-8.58Z" transform="translate(-0.890625, 8.578125)"></path></g></g></g></g></g><defs v-gra="od"></defs></svg>